<?xml version="1.0" encoding="UTF-8" standalone="no"?>
<!-- Created with Inkscape (http://www.inkscape.org/) -->

<svg
   xmlns:dc="http://purl.org/dc/elements/1.1/"
   xmlns:cc="http://creativecommons.org/ns#"
   xmlns:rdf="http://www.w3.org/1999/02/22-rdf-syntax-ns#"
   xmlns:svg="http://www.w3.org/2000/svg"
   xmlns="http://www.w3.org/2000/svg"
   xmlns:sodipodi="http://sodipodi.sourceforge.net/DTD/sodipodi-0.dtd"
   xmlns:inkscape="http://www.inkscape.org/namespaces/inkscape"
   width="550"
   height="40"
   viewBox="0 0 145.52083 10.583334"
   version="1.1"
   id="svg8"
   inkscape:version="0.92.3 (2405546, 2018-03-11)"
   sodipodi:docname="robo-squirrels-logo-asoutlines-inkscape.svg">
  <defs
     id="defs2" />
  <sodipodi:namedview
     id="base"
     pagecolor="#ffffff"
     bordercolor="#666666"
     borderopacity="1.0"
     inkscape:pageopacity="0.0"
     inkscape:pageshadow="2"
     inkscape:zoom="1.979899"
     inkscape:cx="208.17456"
     inkscape:cy="-12.512445"
     inkscape:document-units="px"
     inkscape:current-layer="text12"
     showgrid="false"
     units="px"
     inkscape:window-width="1858"
     inkscape:window-height="1057"
     inkscape:window-x="1974"
     inkscape:window-y="-8"
     inkscape:window-maximized="1"
     showguides="true"
     inkscape:pagecheckerboard="true" />
  <metadata
     id="metadata5">
    <rdf:RDF>
      <cc:Work
         rdf:about="">
        <dc:format>image/svg+xml</dc:format>
        <dc:type
           rdf:resource="http://purl.org/dc/dcmitype/StillImage" />
        <dc:title></dc:title>
      </cc:Work>
    </rdf:RDF>
  </metadata>
  <g
     inkscape:label="Layer 1"
     inkscape:groupmode="layer"
     id="layer1"
     transform="translate(0,-286.41666)">
    <g
       aria-label="ROBO SQUIRRELS"
       style="font-style:normal;font-variant:normal;font-weight:normal;font-stretch:normal;font-size:10.58333397px;line-height:1.25;font-family:'20 db';-inkscape-font-specification:'20 db';letter-spacing:0px;word-spacing:0px;fill:#000000;fill-opacity:1;stroke:none;stroke-width:0.26458335"
       id="text12">
      <path
         d="m 7.6713616,296.12939 h 4.7095834 l -2.06375,-3.75708 v -0.10583 c 1.005417,-0.3175 1.74625,-1.00542 1.74625,-2.06375 0,-1.79917 -2.1166666,-2.54 -4.7625001,-2.54 H 1.4801112 v 8.46666 h 4.2333336 v -3.38666 h 0.1058333 z m -0.3704167,-3.81 H 5.7134448 v -4.23333 h 1.5875001 z"
         style="font-style:normal;font-variant:normal;font-weight:normal;font-stretch:normal;font-family:'20 db';-inkscape-font-specification:'20 db';stroke-width:0.26458335"
         id="path14" />
      <path
         d="m 17.451851,287.98023 h 2.116666 v 7.83166 h -2.116666 z m 0.211666,-0.42334 c -2.54,0 -4.656667,0.74084 -4.656667,4.33917 0,3.59833 2.116667,4.33917 4.656667,4.33917 h 1.693334 c 2.54,0 4.656667,-0.74084 4.656667,-4.33917 0,-3.59833 -2.116667,-4.33917 -4.656667,-4.33917 z"
         style="font-style:normal;font-variant:normal;font-weight:normal;font-stretch:normal;font-family:'20 db';-inkscape-font-specification:'20 db';stroke-width:0.26458335"
         id="path16" />
      <path
         d="M 31.322634,295.70606 H 29.6293 v -7.62 h 1.693334 z m 2.275416,-4.1275 c 1.322917,-0.21167 2.275417,-0.86783 2.275417,-1.79917 0,-1.37583 -2.116667,-2.11666 -4.550833,-2.11666 h -5.926667 v 8.46666 h 5.926667 c 2.8575,0 4.974167,-0.74083 4.974167,-2.32833 0,-1.12183 -1.058334,-1.79917 -2.698751,-2.06375 z"
         style="font-style:normal;font-variant:normal;font-weight:normal;font-stretch:normal;font-family:'20 db';-inkscape-font-specification:'20 db';stroke-width:0.26458335"
         id="path18" />
      <path
         d="m 41.59508,287.98023 h 2.116667 v 7.83166 H 41.59508 Z m 0.211667,-0.42334 c -2.54,0 -4.656667,0.74084 -4.656667,4.33917 0,3.59833 2.116667,4.33917 4.656667,4.33917 h 1.693333 c 2.54,0 4.656667,-0.74084 4.656667,-4.33917 0,-3.59833 -2.116667,-4.33917 -4.656667,-4.33917 z"
         style="font-style:normal;font-variant:normal;font-weight:normal;font-stretch:normal;font-family:'20 db';-inkscape-font-specification:'20 db';stroke-width:0.26458335"
         id="path20" />
      <path
         d="m 60.118398,289.14439 c 0,-0.74083 0.423333,-1.16416 1.481667,-1.16416 1.322916,0 2.645833,0.26458 2.645833,2.2225 h 0.423333 c 0,-2.27542 -1.42875,-2.64584 -3.069166,-2.64584 h -1.905001 c -2.54,0 -4.233333,0.52917 -4.233333,2.43417 0,3.06917 4.868333,2.80458 4.868333,4.65667 0,0.74083 -0.423333,1.16416 -1.481666,1.16416 -1.5875,0 -2.910417,-0.26458 -2.910417,-2.2225 h -0.423333 c 0,2.27542 1.42875,2.64584 3.33375,2.64584 h 1.905 c 2.54,0 4.233333,-0.52917 4.233333,-2.43417 0,-3.06917 -4.868333,-2.80458 -4.868333,-4.65667 z"
         style="font-style:normal;font-variant:normal;font-weight:normal;font-stretch:normal;font-family:'20 db';-inkscape-font-specification:'20 db';stroke-width:0.26458335"
         id="path22" />
      <path
         d="m 70.600856,296.12939 h 6.138334 v -0.42333 h -2.54 v -0.10583 c 1.799167,-0.52917 2.751667,-1.524 2.751667,-3.70417 0,-3.59833 -2.116667,-4.33917 -4.656667,-4.33917 h -1.693334 c -2.54,0 -4.656667,0.74084 -4.656667,4.33917 0,3.4925 2.116667,4.23333 4.656667,4.23333 z m -0.211666,-8.14916 h 2.116666 v 7.72583 H 70.38919 Z"
         style="font-style:normal;font-variant:normal;font-weight:normal;font-stretch:normal;font-family:'20 db';-inkscape-font-specification:'20 db';stroke-width:0.26458335"
         id="path24" />
      <path
         d="m 83.20164,296.23523 c 2.2225,0 4.021667,-0.37042 4.021667,-3.175 v -5.3975 h -0.423333 v 5.3975 c 0,2.48708 -1.693334,2.75166 -3.598334,2.75166 h -0.846667 v -8.14916 H 78.12164 v 5.3975 c 0,2.43416 2.116667,3.175 4.233333,3.175 z"
         style="font-style:normal;font-variant:normal;font-weight:normal;font-stretch:normal;font-family:'20 db';-inkscape-font-specification:'20 db';stroke-width:0.26458335"
         id="path26" />
      <path
         d="m 88.709931,296.12939 h 4.233334 v -8.46666 h -4.233334 z"
         style="font-style:normal;font-variant:normal;font-weight:normal;font-stretch:normal;font-family:'20 db';-inkscape-font-specification:'20 db';stroke-width:0.26458335"
         id="path28" />
      <path
         d="m 100.83364,296.12939 h 4.70958 l -2.06375,-3.75708 v -0.10583 c 1.00542,-0.3175 1.74625,-1.00542 1.74625,-2.06375 0,-1.79917 -2.11666,-2.54 -4.7625,-2.54 h -5.820832 v 8.46666 h 4.233334 v -3.38666 h 0.105833 z m -0.37042,-3.81 h -1.587498 v -4.23333 h 1.587498 z"
         style="font-style:normal;font-variant:normal;font-weight:normal;font-stretch:normal;font-family:'20 db';-inkscape-font-specification:'20 db';stroke-width:0.26458335"
         id="path30" />
      <path
         d="m 112.67788,296.12939 h 4.70958 l -2.06375,-3.75708 v -0.10583 c 1.00542,-0.3175 1.74625,-1.00542 1.74625,-2.06375 0,-1.79917 -2.11667,-2.54 -4.7625,-2.54 h -5.82083 v 8.46666 h 4.23333 v -3.38666 h 0.10583 z m -0.37042,-3.81 h -1.5875 v -4.23333 h 1.5875 z"
         style="font-style:normal;font-variant:normal;font-weight:normal;font-stretch:normal;font-family:'20 db';-inkscape-font-specification:'20 db';stroke-width:0.26458335"
         id="path32" />
      <path
         d="m 118.33086,296.12939 h 8.36084 v -0.42333 h -4.1275 v -3.81 h 2.96333 v -0.42333 h -2.96333 v -3.38667 h 3.91583 v -0.42333 h -8.14917 z"
         style="font-style:normal;font-variant:normal;font-weight:normal;font-stretch:normal;font-family:'20 db';-inkscape-font-specification:'20 db';stroke-width:0.26458335"
         id="path34" />
      <path
         d="m 127.75665,296.12939 h 7.83166 v -0.42333 h -3.59833 v -8.04333 h -4.23333 z"
         style="font-style:normal;font-variant:normal;font-weight:normal;font-stretch:normal;font-family:'20 db';-inkscape-font-specification:'20 db';stroke-width:0.26458335"
         id="path36" />
      <path
         d="m 140.23754,289.14439 c 0,-0.74083 0.42333,-1.16416 1.48167,-1.16416 1.32291,0 2.64583,0.26458 2.64583,2.2225 h 0.42333 c 0,-2.27542 -1.42875,-2.64584 -3.06916,-2.64584 h -1.905 c -2.54001,0 -4.23334,0.52917 -4.23334,2.43417 0,3.06917 4.86834,2.80458 4.86834,4.65667 0,0.74083 -0.42334,1.16416 -1.48167,1.16416 -1.5875,0 -2.91042,-0.26458 -2.91042,-2.2225 h -0.42333 c 0,2.27542 1.42875,2.64584 3.33375,2.64584 h 1.905 c 2.54,0 4.23333,-0.52917 4.23333,-2.43417 0,-3.06917 -4.86833,-2.80458 -4.86833,-4.65667 z"
         style="font-style:normal;font-variant:normal;font-weight:normal;font-stretch:normal;font-family:'20 db';-inkscape-font-specification:'20 db';stroke-width:0.26458335"
         id="path38" />
    </g>
  </g>
</svg>
